<svg xmlns="http://www.w3.org/2000/svg" viewBox="0 0 64 64" width="64" height="64">
  <defs>
    <style>
      .spiral-path {
        fill: none;
        stroke: #ffffff;
        stroke-width: 2.5;
        stroke-linecap: round;
        stroke-linejoin: round;
      }
    </style>
  </defs>
  <rect width="64" height="64" fill="#0a0a0a"/>
  <path class="spiral-path" d="M 32.00,32.00 
    L 32.11,32.01 
    L 32.22,32.04 
    L 32.32,32.09 
    L 32.42,32.15 
    L 32.50,32.23 
    L 32.58,32.33 
    L 32.64,32.45 
    L 32.68,32.57 
    L 32.71,32.71 
    L 32.71,32.85 
    L 32.70,33.00 
    L 32.67,33.15 
    L 32.61,33.31 
    L 32.53,33.46 
    L 32.43,33.61 
    L 32.31,33.75 
    L 32.16,33.88 
    L 32.00,34.00 
    L 31.82,34.10 
    L 31.61,34.19 
    L 31.40,34.25 
    L 31.16,34.30 
    L 30.92,34.32 
    L 30.67,34.31 
    L 30.41,34.28 
    L 30.14,34.21 
    L 29.88,34.12 
    L 29.62,34.00 
    L 29.36,33.85 
    L 29.11,33.67 
    L 28.88,33.46 
    L 28.66,33.22 
    L 28.46,32.95 
    L 28.28,32.66 
    L 28.13,32.34 
    L 28.00,32.00 
    L 27.90,31.64 
    L 27.84,31.27 
    L 27.81,30.88 
    L 27.82,30.48 
    L 27.87,30.07 
    L 27.96,29.67 
    L 28.09,29.26 
    L 28.25,28.86 
    L 28.46,28.46 
    L 28.71,28.08 
    L 29.00,27.72 
    L 29.33,27.38 
    L 29.70,27.07 
    L 30.10,26.78 
    L 30.53,26.53 
    L 31.00,26.31 
    L 31.49,26.13 
    L 32.00,26.00 
    L 32.53,25.91 
    L 33.08,25.87 
    L 33.64,25.88 
    L 34.20,25.94 
    L 34.77,26.06 
    L 35.33,26.23 
    L 35.89,26.45 
    L 36.43,26.72 
    L 36.95,27.05 
    L 37.45,27.43 
    L 37.92,27.86 
    L 38.35,28.33 
    L 38.75,28.85 
    L 39.10,29.42 
    L 39.41,30.02 
    L 39.66,30.65 
    L 39.86,31.31 
    L 40.00,32.00 
    L 40.08,32.71 
    L 40.10,33.43 
    L 40.05,34.16 
    L 39.94,34.89 
    L 39.75,35.62 
    L 39.51,36.33 
    L 39.19,37.03 
    L 38.81,37.71 
    L 38.36,38.36 
    L 37.86,38.98 
    L 37.29,39.55 
    L 36.67,40.08 
    L 35.99,40.56 
    L 35.27,40.98 
    L 34.50,41.34 
    L 33.70,41.63 
    L 32.86,41.85 
    L 32.00,42.00 
    L 31.12,42.07 
    L 30.22,42.07 
    L 29.33,41.98 
    L 28.43,41.81 
    L 27.54,41.57 
    L 26.67,41.24 
    L 25.82,40.83 
    L 25.00,40.34 
    L 24.22,39.78 
    L 23.49,39.14 
    L 22.81,38.44 
    L 22.19,37.67 
    L 21.63,36.84 
    L 21.14,35.95 
    L 20.73,35.02 
    L 20.40,34.05 
    L 20.16,33.04 
    L 20.00,32.00 
    L 19.93,30.94 
    L 19.96,29.88 
    L 20.09,28.81 
    L 20.31,27.74 
    L 20.62,26.69 
    L 21.03,25.67 
    L 21.53,24.67 
    L 22.13,23.72 
    L 22.81,22.81 
    L 23.57,21.96 
    L 24.42,21.17 
    L 25.33,20.45 
    L 26.32,19.82 
    L 27.36,19.26 
    L 28.46,18.80 
    L 29.61,18.43 
    L 30.79,18.16 
    L 32.00,18.00 
    L 33.23,17.94 
    L 34.47,17.99 
    L 35.71,18.16 
    L 36.94,18.43 
    L 38.15,18.81 
    L 39.33,19.30 
    L 40.48,19.89 
    L 41.57,20.59 
    L 42.61,21.39 
    L 43.58,22.29 
    L 44.47,23.27 
    L 45.28,24.33 
    L 46.00,25.47 
    L 46.62,26.68 
    L 47.13,27.95 
    L 47.54,29.26 
    L 47.83,30.62 
    L 48.00,32.00 
    L 48.05,33.40 
    L 47.98,34.82 
    L 47.78,36.23 
    L 47.45,37.62 
    L 47.00,39.00 
    L 46.43,40.33 
    L 45.74,41.62 
    L 44.94,42.86 
    L 44.02,44.02 
    L 43.00,45.11 
    L 41.88,46.11 
    L 40.67,47.01 
    L 39.37,47.81 
    L 38.00,48.50 
    L 36.57,49.06 
    L 35.09,49.51 
    L 33.56,49.82 
    L 32.00,50.00 
    L 30.42,50.04 
    L 28.84,49.95 
    L 27.25,49.71 
    L 25.69,49.33 
    L 24.16,48.82 
    L 22.67,48.17 
    L 21.23,47.38 
    L 19.86,46.47 
    L 18.56,45.44 
    L 17.36,44.28 
    L 16.25,43.03 
    L 15.26,41.67 
    L 14.38,40.22 
    L 13.62,38.69 
    L 13.00,37.09 
    L 12.52,35.43 
    L 12.19,33.73 
    L 12.00,32.00 
    L 11.97,30.25 
    L 12.08,28.49 
    L 12.36,26.74 
    L 12.79,25.01 
    L 13.37,23.31 
    L 14.10,21.67 
    L 14.98,20.08 
    L 16.00,18.57 
    L 17.15,17.15 
    L 18.43,15.83 
    L 19.83,14.62 
    L 21.33,13.52 
    L 22.94,12.56 
    L 24.63,11.74 
    L 26.39,11.07 
    L 28.22,10.55 
    L 30.09,10.19 
    L 32.00,10.00 
    L 33.93,9.97 
    L 35.86,10.12 
    L 37.78,10.43 
    L 39.68,10.91 
    L 41.53,11.56 
    L 43.33,12.37 
    L 45.06,13.34 
    L 46.71,14.47 
    L 48.26,15.74 
    L 49.70,17.14 
    L 51.02,18.68 
    L 52.21,20.33 
    L 53.25,22.09 
    L 54.13,23.94 
    L 54.86,25.87 
    L 55.42,27.87 
    L 55.80,29.92 
    L 56.00,32.00"/>
</svg>
